{"title":"Lolita [DVDRip-XviD-Ita/Eng/Fra-Mp3-MultiSub][Tntvillage.Scambio","uid":5919750,"size":1675638272,"categoryP":"video","categoryS":"movies","magnet":"?xt=urn:btih:b18438dbe581ca3f68fb10e893ce6dcb9f6906c3&amp;dn=Lolita+%5BDVDRip-XviD-Ita%2FEng%2FFra-Mp3-MultiSub%5D%5BTntvillage.Scambio&amp;tr=udp%3A%2F%2Ftracker.openbittorrent.com%3A80&amp;tr=udp%3A%2F%2Fopen.demonii.com%3A1337&amp;tr=udp%3A%2F%2Ftracker.coppersurfer.tk%3A6969&amp;tr=udp%3A%2F%2Fexodus.desync.com%3A6969","seeders":1,"leechers":0,"uploader":"maxneb","files":8,"time":1288357409,"description":"Lolita [DVDRip-XviD-Ita/Eng/Fra-Mp3-MultiSub][Tntvillage.Scambioetico]\n\n\n\n\nGeneral\nComplete name                    : G:\\Lolita [DVDRip-XviD-Ita-Eng-Fra-Mp3][RiP By MaX].avi\nFormat                           : AVI\nFormat/Info                      : Audio Video Interleave\nFile size                        : 1.56 GiB\nDuration                         : 2h 26mn\nOverall bit rate                 : 1 519 Kbps\nWriting application              : VirtualDubMod 1.5.10.2 (build 2540/release)\nWriting library                  : VirtualDubMod build 2540/release\n\nVideo\nID                               : 0\nFormat                           : MPEG-4 Visual\nFormat profile                   : Advanced Simple@L5\nFormat settings, BVOP            : Yes\nFormat settings, QPel            : No\nFormat settings, GMC             : No warppoints\nFormat settings, Matrix          : Default (H.263)\nCodec ID                         : XVID\nCodec ID/Hint                    : XviD\nDuration                         : 2h 26mn\nBit rate                         : 1 115 Kbps\nWidth                            : 656 pixels\nHeight                           : 368 pixels\nDisplay aspect ratio             : 16:9\nFrame rate                       : 25.000 fps\nColor space                      : YUV\nChroma subsampling               : 4:2:0\nBit depth                        : 8 bits\nScan type                        : Progressive\nBits/(Pixel*Frame)               : 0.185\nStream size                      : 1.14 GiB (73%)\nWriting library                  : XviD 1.2.1 (UTC 2008-12-04)\n\nAudio #1\nID                               : 1\nFormat                           : MPEG Audio\nFormat version                   : Version 1\nFormat profile                   : Layer 3\nCodec ID                         : 55\nCodec ID/Hint                    : MP3\nDuration                         : 2h 26mn\nBit rate mode                    : Constant\nBit rate                         : 128 Kbps\nChannel(s)                       : 1 channel\nSampling rate                    : 48.0 KHz\nStream size                      : 135 MiB (8%)\nAlignment                        : Aligned on interleaves\nInterleave, duration             : 40 ms (1.00 video frame)\nInterleave, preload duration     : 504 ms\nWriting library                  : LAME3.98r\nEncoding settings                : -m m -V 4 -q 2 -lowpass 20.5 -b 128\n\nAudio #2\nID                               : 2\nFormat                           : MPEG Audio\nFormat version                   : Version 1\nFormat profile                   : Layer 3\nCodec ID                         : 55\nCodec ID/Hint                    : MP3\nDuration                         : 2h 26mn\nBit rate mode                    : Constant\nBit rate                         : 128 Kbps\nChannel(s)                       : 1 channel\nSampling rate                    : 48.0 KHz\nStream size                      : 135 MiB (8%)\nAlignment                        : Aligned on interleaves\nInterleave, duration             : 40 ms (1.00 video frame)\nInterleave, preload duration     : 504 ms\nWriting library                  : LAME3.98r\nEncoding settings                : -m m -V 4 -q 2 -lowpass 20.5 -b 128\n\nAudio #3\nID                               : 3\nFormat                           : MPEG Audio\nFormat version                   : Version 1\nFormat profile                   : Layer 3\nCodec ID                         : 55\nCodec ID/Hint                    : MP3\nDuration                         : 2h 26mn\nBit rate mode                    : Constant\nBit rate                         : 128 Kbps\nChannel(s)                       : 1 channel\nSampling rate                    : 48.0 KHz\nStream size                      : 135 MiB (8%)\nAlignment                        : Aligned on interleaves\nInterleave, duration             : 40 ms (1.00 video frame)\nInterleave, preload duration     : 504 ms\nWriting library                  : LAME3.98r\nEncoding settings                : -m m -V 4 -q 2 -lowpass 20.5 -b 128","torrent":{"xt":"urn:btih:b18438dbe581ca3f68fb10e893ce6dcb9f6906c3","amp;dn":"Lolita+%5BDVDRip-XviD-Ita%2FEng%2FFra-Mp3-MultiSub%5D%5BTntvillage.Scambio","amp;tr":["udp%3A%2F%2Ftracker.openbittorrent.com%3A80","udp%3A%2F%2Fopen.demonii.com%3A1337","udp%3A%2F%2Ftracker.coppersurfer.tk%3A6969","udp%3A%2F%2Fexodus.desync.com%3A6969"],"infoHash":"b18438dbe581ca3f68fb10e893ce6dcb9f6906c3","infoHashBuffer":{"type":"Buffer","data":[177,132,56,219,229,129,202,63,104,251,16,232,147,206,109,203,159,105,6,195]},"announce":[],"urlList":[]}}